<mxfile host="app.diagrams.net" modified="2024-01-01T23:07:25.839Z" agent="Mozilla/5.0 (Linux; Android 10; K) AppleWebKit/537.36 (KHTML, like Gecko) Chrome/120.0.0.0 Mobile Safari/537.36" version="22.1.16" etag="f1-GTYj4WiwSlnluGc9w" type="github">
  <diagram name="Page-1" id="SbYI-Lm76_LNeKKgo1sf">
    <mxGraphModel>
      <root>
        <mxCell id="0" />
        <mxCell id="1" parent="0" />
      </root>
    </mxGraphModel>
  </diagram>
</mxfile>
